<svg width="267" height="273" xmlns="http://www.w3.org/2000/svg" xmlns:xlink="http://www.w3.org/1999/xlink"><defs><filter x="-35.8%" y="-33.5%" width="171.5%" height="169.1%" filterUnits="objectBoundingBox" id="a"><feMorphology radius="6.5" operator="dilate" in="SourceAlpha" result="shadowSpreadOuter1"/><feOffset dy="2" in="shadowSpreadOuter1" result="shadowOffsetOuter1"/><feGaussianBlur stdDeviation="16" in="shadowOffsetOuter1" result="shadowBlurOuter1"/><feComposite in="shadowBlurOuter1" in2="SourceAlpha" operator="out" result="shadowBlurOuter1"/><feColorMatrix values="0 0 0 0 0 0 0 0 0 0 0 0 0 0 0 0 0 0 0.138357736 0" in="shadowBlurOuter1"/></filter><filter x="-84.3%" y="-80.4%" width="268.6%" height="268.6%" filterUnits="objectBoundingBox" id="c"><feMorphology radius="2" operator="dilate" in="SourceAlpha" result="shadowSpreadOuter1"/><feOffset dy="2" in="shadowSpreadOuter1" result="shadowOffsetOuter1"/><feGaussianBlur stdDeviation="12" in="shadowOffsetOuter1" result="shadowBlurOuter1"/><feComposite in="shadowBlurOuter1" in2="SourceAlpha" operator="out" result="shadowBlurOuter1"/><feColorMatrix values="0 0 0 0 0 0 0 0 0 0 0 0 0 0 0 0 0 0 0.172776442 0" in="shadowBlurOuter1"/></filter><circle id="d" cx="154.89" cy="25.51" r="25.51"/><path d="M90.2 0c49.816 0 90.2 40.445 90.2 90.336 0 49.892-40.384 90.337-90.2 90.337-11.164 0-21.854-2.031-31.723-5.745L28.664 186.42a5.632 5.632 0 0 1-7.657-5.13l-.645-29.372a29.122 29.122 0 0 0-.416-4.922C7.47 131.502 0 111.793 0 90.337 0 40.444 40.384 0 90.2 0Z" id="b"/></defs><g fill="none" fill-rule="evenodd"><g fill-rule="nonzero" transform="translate(43 41)"><use fill="#000" filter="url(#a)" xlink:href="#b"/><use stroke="#FFF" stroke-width="4" fill="#0091FF" xlink:href="#b"/></g><text transform="translate(62.8 110.4)" fill="#FFF" font-family="YahooSans-ExtraBold, Yahoo Sans" font-size="33.4" font-weight="700" letter-spacing=".716">
    <tspan x="23.595" y="32">CHAT</tspan>
</text><g transform="translate(43 41)"><use fill="#000" filter="url(#c)" xlink:href="#d"/><circle stroke="#FFF" stroke-width="4" stroke-linejoin="square" fill="#00D700" cx="154.89" cy="25.51" r="23.51"/></g></g></svg>